<?xml version="1.0" encoding="utf-8"?>
<!-- Generator: Adobe Illustrator 26.2.1, SVG Export Plug-In . SVG Version: 6.00 Build 0)  -->
<svg version="1.1" id="Layer_1" xmlns="http://www.w3.org/2000/svg" xmlns:xlink="http://www.w3.org/1999/xlink" x="0px" y="0px"
	 viewBox="0 0 49.8 9.5" style="enable-background:new 0 0 49.8 9.5;" xml:space="preserve">
<style type="text/css">
	.st0{fill:#FFFFFF;}
</style>
<g id="Layer_2_00000071558537152090540500000006911805228858373262_">
	<g id="Layer_1-2">
		<path class="st0" d="M7,6.4C7,6.4,7,6.4,7,6.4L7,6.4v0.2c-1.1,1.1-3.5,3-5.6,3C0.8,9.5,0,8.9,0,8.3c0-1.5,3-3,4.7-3.9l0,0
			c-1,0.4-2,0.6-3,0.8c-0.5,0.1-1-0.3-1.1-0.9c0,0,0-0.1,0-0.1C0.6,2.5,4.9,0,7.9,0c0.5-0.1,1,0.3,1.1,0.9C9,1.5,7.6,2.7,6.8,3
			C6.6,3.1,6.5,3.1,6.4,3.1C6.3,3.1,6.1,3,6.1,2.9s0,0,0.1-0.1c1.1-0.2,2.7-1.4,2.7-2c0-0.2-0.2-0.4-0.5-0.4c-3,0-7,2.6-7,4.1
			C1.3,4.8,1.4,5,1.9,5C2.9,4.8,4,4.5,5,4.1c0.2,0,0.4,0.4,0.4,0.7S5,5,4.7,5.2C3.4,5.9,0.6,7.4,0.6,8.6c0,0.3,0.3,0.6,0.6,0.6
			c0,0,0,0,0.1,0C3.5,9.1,5.5,8.1,7,6.4z"/>
		<path class="st0" d="M8.2,5.4C8.1,5.8,7.9,6.2,7.6,6.6C8.3,6,9,5.6,9.8,5.4c0.2,0,0.3,0.3,0.3,0.5s-0.9,1-0.9,1.7
			c0,0.1,0.1,0.2,0.1,0.2c0,0,0,0,0,0c0.7,0,2-1.3,2-1.3s0.1,0,0.1,0c0,0,0,0,0.1,0l-0.1,0.2c0,0-1.4,1.4-2,1.4
			C9,7.9,8.7,7.5,8.7,7.2c0-0.5,0.6-1.3,0.6-1.4s0,0,0,0C8.6,6,8,6.4,7.5,6.8c-0.4,0.4-0.7,0.8-1,1.3c-0.1,0-0.3-0.3-0.3-0.6
			s1.2-1.7,1.4-2.6c0-0.1,0.1-0.1,0.1-0.1C8,4.9,8.2,5.1,8.2,5.4z"/>
		<path class="st0" d="M11.3,7.3c0-1.2,0.9-2.7,1.6-3.8c-0.4,0.1-0.7,0.2-0.8,0.2s-0.3-0.2-0.3-0.3s0-0.1,0.1-0.1
			c0.4-0.1,0.8-0.1,1.1-0.1c0.3-0.5,0.6-1,0.7-1.5c0-0.1,0-0.1,0.1-0.1s0.6,0.5,0.6,0.8c-0.1,0.3-0.3,0.6-0.5,0.8
			c0.7,0,1.3,0.1,1.9,0.3v0.1c-0.6-0.2-1.2-0.3-1.9-0.3h-0.2c-0.8,1.1-2,2.8-2,4.2c0,0.1,0.1,0.2,0.2,0.2c0,0,0,0,0,0
			c0.6,0,1.9-1.4,2.6-2.5C14.4,5.2,14,5,14,4.7c0.1-0.4,0.4-0.8,0.8-0.8c0.2,0,0.4,0.1,0.5,0.3c-0.1,0.4-0.2,0.7-0.5,1
			c0.4,0.2,1,0.3,1,0.6S15,6.9,15,7.4c0,0.1,0.1,0.3,0.2,0.3c0,0,0,0,0,0c0.4,0,1.7-1.2,1.7-1.2s0,0,0.1,0c0,0,0,0,0.1,0
			c0,0-0.1,0.1-0.1,0.2s-1.3,1.3-1.8,1.3c-0.4,0-0.7-0.3-0.8-0.7c0-0.7,0.6-1.3,0.6-1.7c0-0.1-0.1-0.2-0.2-0.2C14,6.5,12.6,8,11.9,8
			C11.5,8,11.3,7.7,11.3,7.3C11.3,7.3,11.3,7.3,11.3,7.3z M15.1,4.2c-0.3,0.1-0.5,0.4-0.5,0.7c0,0.1,0.1,0.2,0.2,0.3
			C14.9,4.9,15.1,4.6,15.1,4.2C15.1,4.2,15.1,4.2,15.1,4.2z"/>
		<path class="st0" d="M18.6,7.2c0-0.1,0.1-0.1,0.1-0.1l0,0C18.7,7.1,18.7,7.2,18.6,7.2c-0.2,0.4-0.6,0.6-1,0.6
			c-0.5,0-0.9-0.4-0.9-0.9c0,0,0,0,0-0.1c0-1,0.7-1.9,1.6-2.2c0.3,0,0.5,0.4,0.5,0.6c0,0.3-0.8,1-1.5,1.4c0,0.1,0,0.2,0,0.4
			c0,0.4,0.2,0.7,0.5,0.7S18.4,7.3,18.6,7.2z M18.6,5.2c0-0.1,0-0.1-0.1-0.1s-0.7,0.5-1.1,1.3C17.9,6,18.6,5.5,18.6,5.2L18.6,5.2z"
			/>
		<path class="st0" d="M28.5,6.4C28.5,6.4,28.5,6.4,28.5,6.4 M28.6,6.4l-0.1,0.2c-0.9,0.9-3,2.5-4.8,2.5c-1.3,0-2.3-0.9-2.5-2.2
			c0-3.1,5-6.9,7.6-6.9c0.7,0,1.2,0.6,1.2,1.2c0,0.9-1.7,2.3-2.1,2.3s-0.6-0.2-0.6-0.3s0-0.1,0.1-0.1c0.8-0.2,2.4-1.2,2.4-2.2
			c0-0.2-0.3-0.5-0.7-0.5c-2.4,0-7.2,3.7-7.2,6.8c0,1,0.7,1.4,1.7,1.4c1.9-0.1,3.6-1,4.8-2.4H28.6z"/>
		<path class="st0" d="M30,7.4c-0.2,0.2-0.5,0.4-0.8,0.4c-0.4,0-0.8-0.4-0.8-0.8c0-0.2,0-0.5,0.1-0.7c0,0,0,0,0-0.1
			c0.1-0.9,0.8-1.6,1.7-1.8c0.5,0,0.9,0.3,0.9,0.8c0,0,0,0,0,0.1c-0.1,0.8-0.4,1.5-1,1.9c0.7-0.1,1.3-0.4,1.7-0.9c0,0,0.1,0,0.1,0
			c0,0,0,0,0.1,0c0,0-0.1,0.1-0.1,0.2C31.4,7.1,30.7,7.4,30,7.4z M29.9,5c0.1,0,0.4,0.3,0.4,0.4s-0.1,0.1-0.2,0.2
			c-0.5,0.3-1,0.8-1.3,1.3c0.3,0.3,0.6,0.4,1,0.4c0.6-0.5,1-1.2,1-2c0-0.3-0.2-0.6-0.6-0.7c0,0-0.1,0-0.1,0
			c-0.7,0.1-1.3,0.6-1.5,1.3c0.2-0.3,0.4-0.5,0.7-0.8C29.5,5.1,29.7,5,29.9,5z M28.7,7.3c0,0.2,0.1,0.4,0.3,0.4c0,0,0,0,0,0
			c0.2,0,0.5-0.1,0.7-0.3c-0.4,0-0.7-0.2-1-0.4C28.7,7.1,28.7,7.2,28.7,7.3z"/>
		<path class="st0" d="M32.8,5.3c-0.3-0.1-0.7-0.3-0.7-0.5C32.2,4.3,32.6,4,33,3.9c0.2,0,0.4,0.2,0.5,0.3c-0.1,0.4-0.2,0.7-0.5,1
			c0.4,0.2,1,0.3,1,0.6s-0.8,1.1-0.8,1.6c0,0.1,0.1,0.3,0.2,0.3c0,0,0,0,0,0c0.5,0,1.7-1.2,1.7-1.2h0.1c0,0,0.1,0,0,0.1
			c0,0-0.1,0.1-0.1,0.1s-1.3,1.3-1.8,1.3c-0.4,0-0.7-0.3-0.7-0.7c0-0.7,0.6-1.3,0.6-1.7c0-0.1-0.1-0.2-0.2-0.2
			c-0.4,0.5-0.8,0.9-1.1,1.2h-0.1c0,0,0,0,0,0c0,0,0.1-0.1,0.1-0.2C32.2,6.1,32.5,5.7,32.8,5.3z M33.2,4.3c-0.3,0.1-0.5,0.4-0.5,0.7
			c0,0.1,0.1,0.2,0.2,0.3C33.1,5,33.2,4.7,33.2,4.3C33.2,4.3,33.2,4.2,33.2,4.3L33.2,4.3z"/>
		<path class="st0" d="M37.7,3.3c0.4,0,0.9,0.1,1.3,0.2c0,0,0,0.1,0,0.1c-0.4-0.1-0.7-0.1-1.1-0.1c-0.2,0-0.4,0-0.6,0.1
			C36.4,4.8,35,6.8,35,8.1c0,0.5,0.2,0.8,0.6,0.8c0.1,0,0.1,0,0.1,0.1c0,0-0.1,0.1-0.1,0.1c-0.6-0.1-0.9-0.6-0.9-1.2
			c0-1.2,0.9-2.8,1.7-4.2c-0.2,0-0.5,0.1-0.7,0.2c-0.1,0-0.2-0.2-0.2-0.3s0,0,0.1-0.1c0.3-0.1,0.7-0.2,1.1-0.2
			c0.4-0.5,0.6-1.1,0.8-1.7c0-0.1,0-0.1,0.1-0.1S38,2,38,2.4c-0.1,0.3-0.3,0.7-0.6,0.9H37.7z"/>
		<path class="st0" d="M38.2,5.2c0,0.2-1.4,1.8-1.4,2.3c0,0.1,0.1,0.2,0.2,0.2c0,0,0,0,0,0c0.7,0,2.1-1.3,2.1-1.3c0,0,0.1,0,0.1,0
			l0,0c0,0-0.1,0.1-0.1,0.2S37.6,8,36.8,8c-0.3-0.1-0.6-0.3-0.6-0.7c0-0.5,1-1.9,1.3-2.4c0-0.1,0.1-0.1,0.1-0.1
			C37.9,4.8,38.1,5,38.2,5.2z M39.3,3.1c0,0.2-0.1,0.3-0.2,0.4l-0.3,0.1c-0.2,0.1-0.3,0.2-0.3,0.2c0,0-0.1,0-0.1,0c0,0,0,0,0,0
			c0-0.3,0.5-0.9,0.5-1.2l0,0C39,2.6,39.3,3,39.3,3.1z"/>
		<path class="st0" d="M40.3,5.4c-0.1,0.4-0.3,0.8-0.6,1.1c0.6-0.5,1.4-0.9,2.2-1.2c0.2,0,0.3,0.3,0.3,0.5s-0.9,1-0.9,1.7
			c0,0.1,0.1,0.2,0.1,0.2c0,0,0,0,0,0c0.7,0,2-1.3,2-1.3s0,0,0.1,0c0,0,0,0,0.1,0l-0.1,0.2c0,0-1.4,1.4-2,1.4
			c-0.4-0.1-0.7-0.4-0.7-0.8c0.1-0.5,0.3-1,0.6-1.4l0,0c-0.6,0.2-1.2,0.6-1.7,1.1c-0.8,0.7-0.9,1.3-1,1.3s-0.3-0.3-0.3-0.6
			s1.2-1.7,1.4-2.6c0-0.1,0.1-0.1,0.1-0.1C40.1,4.9,40.3,5.2,40.3,5.4z"/>
		<path class="st0" d="M46.1,7.8c-0.4,0-0.7-0.3-0.7-0.7c0,0,0,0,0,0c0-0.1,0-0.3,0-0.4c-0.6,0.6-1.4,1.5-1.7,1.5
			C43.3,8,43,7.8,43,7.4c0.3-1.3,1.4-2.3,2.7-2.6c0.5,0,0.9,0.4,0.9,0.7s-0.1,0.3-0.1,0.3c-0.1,0-0.1-0.1-0.1-0.1
			c0,0,0.1-0.1,0.1-0.2s-0.1-0.2-0.2-0.2c-1.3,0.3-2.3,1.2-2.7,2.5c0,0.1,0.1,0.1,0.1,0.2c0,0,0,0,0,0c0.6-0.4,1.2-0.8,1.7-1.4
			c0.4-0.4,0.6-0.6,0.7-0.6c0.2,0.1,0.4,0.3,0.4,0.5c0,0.2-0.5,0.5-0.5,0.9c0,0.2,0.1,0.2,0.3,0.2c0.6,0,1.7-1.1,1.7-1.1
			c0,0,0,0,0.1,0 M48.1,6.4c0,0-0.1,0.1-0.1,0.2s-1.2,1.2-1.9,1.2L48.1,6.4z"/>
		<path class="st0" d="M48.6,6L48,6.6v0c0,0,0,0,0,0c0,0,0-0.1,0-0.2s0.2-0.2,0.5-0.6c-0.1-0.2-0.1-0.3-0.1-0.5
			c0.1-0.5,0.4-0.8,0.8-1c0.2,0.1,0.4,0.2,0.4,0.4c0,0.2-0.8,0.5-0.8,0.9s0.2,0.6,0.3,1c0.4,0.1,0.6,0.2,0.6,0.2s-0.1,0.1-0.1,0.1
			c-0.1-0.1-0.3-0.2-0.5-0.2c0,0.1,0,0.1,0,0.2c-0.1,0.6-0.5,1-1.1,1c-0.5,0-1-0.4-1.1-0.9C47,7.1,47.1,7,47.2,7
			c0.5-0.1,0.9-0.2,1.4-0.3c0,0,0-0.1,0-0.1C48.6,6.4,48.6,6.2,48.6,6z M47.3,7.3c0,0.1,0.2,0.3,0.6,0.3c0.4,0,0.7-0.3,0.8-0.7
			c-0.4,0-0.9,0.1-1.3,0.3C47.3,7.2,47.3,7.2,47.3,7.3L47.3,7.3z"/>
	</g>
</g>
</svg>
