<?xml version="1.0" standalone="no"?>
<!DOCTYPE svg PUBLIC "-//W3C//DTD SVG 20010904//EN"
 "http://www.w3.org/TR/2001/REC-SVG-20010904/DTD/svg10.dtd">
<svg version="1.0" xmlns="http://www.w3.org/2000/svg"
 width="512.000000pt" height="512.000000pt" viewBox="0 0 512.000000 512.000000"
 preserveAspectRatio="xMidYMid meet">
<metadata>
Created by potrace 1.14, written by Peter Selinger 2001-2017
</metadata>
<g transform="translate(0.000000,512.000000) scale(0.100000,-0.100000)"
fill="#000000" stroke="none">
<path d="M0 2560 l0 -2560 2560 0 2560 0 0 2560 0 2560 -2560 0 -2560 0 0
-2560z m4224 2065 c103 -22 188 -66 260 -135 76 -73 112 -136 132 -231 12 -58
13 -83 3 -128 -26 -130 -123 -275 -301 -452 -287 -284 -708 -550 -871 -549
-102 1 -217 102 -217 191 0 63 29 86 164 130 271 89 620 305 832 514 109 108
158 182 158 243 1 41 -2 48 -33 69 -30 20 -46 23 -140 23 -596 0 -1402 -287
-2057 -732 -194 -131 -333 -245 -484 -397 -185 -186 -281 -330 -317 -476 -20
-81 -11 -129 30 -159 26 -19 42 -21 150 -20 205 1 447 69 991 278 154 60 294
110 312 113 45 7 115 -28 160 -80 48 -57 94 -156 107 -233 20 -116 -2 -139
-271 -279 -709 -368 -1263 -728 -1538 -1000 -266 -264 -329 -515 -150 -596 75
-34 321 -23 573 26 598 116 1255 489 1808 1026 72 69 140 131 152 138 66 34
143 -13 143 -88 0 -36 -7 -48 -67 -112 -159 -169 -474 -436 -720 -611 -610
-434 -1210 -679 -1673 -682 -156 -1 -231 17 -360 86 -256 137 -390 352 -359
576 51 370 416 746 1148 1186 79 47 141 86 138 86 -3 0 -52 -11 -109 -25 -333
-81 -484 -80 -656 6 -142 70 -234 180 -267 320 -30 127 -11 242 64 394 68 138
152 247 305 400 466 462 1266 888 2041 1085 356 91 748 131 919 95z"/>
</g>
</svg>
