<?xml version="1.0" encoding="UTF-8"?><svg xmlns="http://www.w3.org/2000/svg" viewBox="0 0 16 16"><defs><style>.d{fill:#fff;}.e{fill:#795569;}</style></defs><g id="a"/><g id="b"><g id="c"><rect class="e" width="16" height="16"/><path class="d" d="M11.53,10.3s.06-.06,.1-.06c.05,0,.06,.05,.06,.06,0,.03-.16,.19-.16,.19-1.49,1.49-4.64,3.95-7.44,3.95-.8,0-1.84-.8-1.84-1.57,0-2.05,3.95-4.07,6.27-5.23l-.02-.05c-.9,.32-3.09,1.07-4.02,1.07-.69,0-1.47-.46-1.47-1.3C3.01,5.13,8.72,1.76,12.79,1.76c.96,0,1.41,.66,1.41,1.17,0,.83-1.84,2.37-2.95,2.88-.21,.1-.38,.16-.51,.16-.1,0-.4-.19-.4-.35,0-.03,.02-.06,.1-.08,1.41-.35,3.54-1.92,3.54-2.71,0-.34-.27-.53-.69-.53C9.22,2.3,3.94,5.82,3.94,7.81c0,.34,.21,.61,.78,.61,1.31,0,3.94-1.25,4.18-1.25,.27,0,.56,.58,.56,.88,0,.16-.51,.37-1.01,.62-1.71,.93-5.46,2.94-5.46,4.58,0,.48,.37,.82,.9,.82,3.38,0,6.21-2.29,7.64-3.76Z"/><path class="d" d="M4.08,14.7c-.91,0-2.09-.88-2.09-1.82,0-1.55,1.89-2.98,4.15-4.27-.66,.18-1.26,.31-1.66,.31-.85,0-1.72-.58-1.72-1.55C2.76,4.96,8.67,1.51,12.79,1.51c1.04,0,1.66,.72,1.66,1.42,0,1.02-2.03,2.62-3.09,3.11-.28,.13-.46,.18-.62,.18-.21,0-.65-.28-.65-.6,0-.13,.08-.28,.3-.33,1.4-.35,3.34-1.87,3.34-2.46,0-.24-.27-.28-.44-.28-4.09,0-9.1,3.52-9.1,5.26,0,.11,0,.36,.53,.36,.87,0,2.41-.6,3.33-.96,.59-.23,.74-.29,.85-.29,.47,0,.81,.74,.81,1.13,0,.28-.31,.44-.83,.69-.1,.05-.21,.1-.31,.16-1.62,.88-5.32,2.88-5.32,4.36,0,.34,.26,.57,.65,.57,3.51,0,6.38-2.58,7.46-3.69h0c.14-.14,.24-.14,.27-.14,.19,0,.31,.16,.31,.31,0,.09-.03,.17-.23,.37-1.86,1.86-4.97,4.03-7.62,4.03Zm4.64-7.22l.08,.25-.18,.15c-1.99,1-6.14,3.09-6.14,5.01,0,.21,.11,.44,.29,.64-.02-.09-.03-.18-.03-.28,0-1.55,2.67-3.21,5.55-4.77,.16-.08,.26-.14,.37-.19,.19-.1,.45-.22,.55-.3-.03-.23-.22-.55-.32-.57-.02,0-.08,.03-.17,.06Zm2.81,2.84l.08,.08h0l-.08-.08Zm1.25-8.31C8.68,2.01,3.26,5.38,3.26,7.38c0,.42,.24,.7,.54,.87-.1-.17-.11-.35-.11-.44,0-2.12,5.36-5.69,9.49-5.76-.11-.03-.24-.05-.39-.05Zm-2.05,3.7s.02,.01,.03,.01c.02,0,.13-.03,.38-.14,.12-.06,.25-.12,.37-.2-.27,.13-.54,.24-.78,.32Z"/></g></g></svg>