<svg xmlns="http://www.w3.org/2000/svg" viewBox="0 0 49.8 9.51"><defs><style>.cls-1{fill:#795569;}</style></defs><g id="Layer_2" data-name="Layer 2"><g id="Layer_1-2" data-name="Layer 1"><path class="cls-1" d="M7,6.4s0,0,.07,0a.05.05,0,0,1,0,0S7,6.55,7,6.55c-1.12,1.11-3.48,3-5.58,3C.78,9.51,0,8.91,0,8.34c0-1.54,3-3,4.7-3.93v0a13.68,13.68,0,0,1-3,.8,1,1,0,0,1-1.1-1C.58,2.53,4.86,0,7.9,0A1,1,0,0,1,9,.88C9,1.5,7.58,2.65,6.75,3a.9.9,0,0,1-.38.12c-.07,0-.3-.14-.3-.26s0-.05.07-.06C7.2,2.57,8.79,1.39,8.79.8c0-.25-.2-.39-.51-.39-3,0-7,2.64-7,4.12,0,.26.16.46.59.46A15,15,0,0,0,5,4.05c.2,0,.42.44.42.66S5,5,4.65,5.18C3.37,5.88.56,7.39.56,8.61a.62.62,0,0,0,.68.61A8.5,8.5,0,0,0,7,6.4Z"/><path class="cls-1" d="M8.22,5.42a4.08,4.08,0,0,1-.59,1.13,6.77,6.77,0,0,1,2.18-1.2c.2,0,.34.35.34.5s-.91,1-.91,1.67a.15.15,0,0,0,.17.16c.73,0,2-1.28,2-1.28s.05,0,.07,0a.06.06,0,0,1,.06,0s-.13.15-.13.15S10,7.92,9.41,7.92a.82.82,0,0,1-.69-.77c0-.53.57-1.29.57-1.37s0,0,0,0A5.23,5.23,0,0,0,7.54,6.82a7.15,7.15,0,0,0-1,1.3c-.12,0-.32-.3-.32-.55S7.46,5.86,7.63,4.94c0-.09.06-.11.12-.11A.7.7,0,0,1,8.22,5.42Z"/><path class="cls-1" d="M11.3,7.29c0-1.16.89-2.65,1.61-3.84-.45.11-.73.24-.77.24s-.26-.21-.26-.32,0-.06.06-.08a5.24,5.24,0,0,1,1.15-.14,4.33,4.33,0,0,0,.74-1.53c0-.06,0-.08.06-.08s.56.48.56.82a3.42,3.42,0,0,1-.51.81,4.52,4.52,0,0,1,1.92.34s0,.08,0,.08A6.32,6.32,0,0,0,14,3.33h-.18c-.77,1.07-2,2.8-2,4.19a.18.18,0,0,0,.19.2c.65,0,1.94-1.4,2.62-2.45C14.39,5.15,14,5,14,4.73a1,1,0,0,1,.82-.84.66.66,0,0,1,.48.32,2.3,2.3,0,0,1-.46,1c.39.18,1,.28,1,.59S15,6.92,15,7.38a.24.24,0,0,0,.24.27c.43,0,1.69-1.25,1.69-1.25s0,0,.07,0a.06.06,0,0,1,.06,0s-.09.11-.13.15-1.26,1.31-1.83,1.31a.77.77,0,0,1-.75-.65c0-.71.65-1.29.65-1.66,0-.09-.08-.16-.2-.22C14,6.48,12.6,8,11.88,8A.63.63,0,0,1,11.3,7.29Zm3.75-3.07a.71.71,0,0,0-.5.69.35.35,0,0,0,.18.26,2.16,2.16,0,0,0,.38-.89A.07.07,0,0,0,15.05,4.22Z"/><path class="cls-1" d="M18.58,7.17c.05-.06.09-.09.11-.09a0,0,0,0,1,0,0s0,.1-.12.18a1.36,1.36,0,0,1-1,.54.94.94,0,0,1-.94-1,2.49,2.49,0,0,1,1.61-2.21c.32,0,.52.41.52.55,0,.34-.79,1-1.45,1.38a2.22,2.22,0,0,0,0,.37c0,.41.21.69.54.69S18.38,7.35,18.58,7.17Zm0-2c0-.09,0-.13-.09-.13s-.73.47-1.09,1.34C17.92,6,18.56,5.47,18.56,5.19Z"/><path class="cls-1" d="M28.51,6.4s0,0,.07,0a0,0,0,0,1,.05,0s-.12.15-.12.15c-.85.89-3,2.52-4.75,2.52a2.49,2.49,0,0,1-2.45-2.19c0-3.08,5-6.88,7.58-6.88a1.26,1.26,0,0,1,1.24,1.25c0,.86-1.72,2.31-2.09,2.31s-.58-.19-.58-.26,0-.06.08-.07c.81-.15,2.39-1.21,2.39-2.16,0-.25-.26-.52-.7-.52C26.85.55,22,4.29,22,7.34c0,1,.67,1.44,1.7,1.44A7,7,0,0,0,28.51,6.4Z"/><path class="cls-1" d="M30,7.44a1.89,1.89,0,0,1-.83.43.86.86,0,0,1-.8-.84,1.59,1.59,0,0,1,.13-.66s0,0,0-.09a2,2,0,0,1,1.73-1.75.87.87,0,0,1,.94.86,2.75,2.75,0,0,1-1,1.93,2.83,2.83,0,0,0,1.71-.92.14.14,0,0,1,.08,0,.07.07,0,0,1,.06,0s-.1.11-.14.15A2.85,2.85,0,0,1,30,7.44ZM29.9,5c.15,0,.39.33.39.45s-.09.12-.16.16A3.71,3.71,0,0,0,28.81,6.9a1.34,1.34,0,0,0,1,.44,2.86,2.86,0,0,0,1-2,.61.61,0,0,0-.69-.65A1.78,1.78,0,0,0,28.64,6a3.24,3.24,0,0,1,.71-.76A1,1,0,0,1,29.9,5ZM28.7,7.33a.36.36,0,0,0,.34.39,1.21,1.21,0,0,0,.66-.28,1.49,1.49,0,0,1-.95-.4A1,1,0,0,0,28.7,7.33Z"/><path class="cls-1" d="M32.82,5.27c-.29-.12-.65-.27-.65-.54A1,1,0,0,1,33,3.89a.67.67,0,0,1,.45.32,2,2,0,0,1-.45,1c.37.18,1,.29,1,.6s-.83,1.1-.83,1.56a.25.25,0,0,0,.25.27c.45,0,1.71-1.25,1.71-1.25l.06,0a.06.06,0,0,1,.05.06s-.06.08-.11.13-1.26,1.31-1.85,1.31a.76.76,0,0,1-.74-.65c0-.71.63-1.29.63-1.66,0-.1-.09-.18-.21-.24-.36.47-.81.94-1.09,1.24l-.06,0a.05.05,0,0,1-.05,0s.06-.09.11-.15A12.46,12.46,0,0,0,32.82,5.27Zm.36-1a.71.71,0,0,0-.47.69.33.33,0,0,0,.18.26,1.82,1.82,0,0,0,.36-.89S33.21,4.22,33.18,4.22Z"/><path class="cls-1" d="M37.71,3.29A5.3,5.3,0,0,1,39,3.45s0,.08-.05.08a7.05,7.05,0,0,0-1.09-.09,2.36,2.36,0,0,0-.61.06C36.39,4.76,35,6.76,35,8.14c0,.53.2.75.57.75A.14.14,0,0,1,35.7,9s-.07.06-.12.06a1.1,1.1,0,0,1-.88-1.19c0-1.17.94-2.83,1.71-4.19a2.55,2.55,0,0,0-.7.21c-.1,0-.25-.21-.25-.28s0,0,.06-.07a4,4,0,0,1,1.08-.21,5.65,5.65,0,0,0,.79-1.71c0-.06,0-.08.06-.08S38,2,38,2.36a3.66,3.66,0,0,1-.57.93Z"/><path class="cls-1" d="M38.15,5.24c0,.22-1.37,1.76-1.37,2.28a.18.18,0,0,0,.19.2c.68,0,2.08-1.32,2.08-1.32a.14.14,0,0,1,.08,0,.07.07,0,0,1,0,0s-.1.11-.13.15S37.58,8,36.8,8a.7.7,0,0,1-.57-.66c0-.53,1-1.86,1.27-2.42a.17.17,0,0,1,.14-.12A.58.58,0,0,1,38.15,5.24Zm1.18-2.09a.7.7,0,0,1-.25.39l-.33.12c-.23.07-.3.2-.35.2a.06.06,0,0,1-.07-.07c0-.29.45-.89.45-1.18,0,0,0,0,0,0C39,2.57,39.33,3,39.33,3.15Z"/><path class="cls-1" d="M40.31,5.42a4.39,4.39,0,0,1-.59,1.13,6.67,6.67,0,0,1,2.18-1.2c.19,0,.34.35.34.5s-.91,1-.91,1.67a.15.15,0,0,0,.16.16c.74,0,2-1.28,2-1.28s.05,0,.07,0a.06.06,0,0,1,.06,0s-.13.15-.13.15-1.38,1.37-2,1.37a.82.82,0,0,1-.68-.77,4.13,4.13,0,0,1,.56-1.37s0,0,0,0a5.23,5.23,0,0,0-1.72,1.06c-.77.71-.86,1.3-1,1.3s-.32-.3-.32-.55,1.22-1.71,1.39-2.63c0-.09.06-.11.12-.11A.7.7,0,0,1,40.31,5.42Z"/><path class="cls-1" d="M46.11,7.8a.7.7,0,0,1-.72-.72,2.66,2.66,0,0,1,0-.44c-.6.59-1.44,1.46-1.72,1.46A.8.8,0,0,1,43,7.4a3.55,3.55,0,0,1,2.66-2.61c.47,0,.92.42.92.68s-.06.31-.09.31a.15.15,0,0,1-.11-.12s.06-.08.06-.23-.13-.19-.21-.19a3.53,3.53,0,0,0-2.69,2.51.14.14,0,0,0,.15.15,6.72,6.72,0,0,0,1.67-1.4c.36-.36.63-.6.73-.6a.73.73,0,0,1,.43.5c0,.15-.52.54-.52.92,0,.15.12.22.26.22C46.87,7.54,48,6.4,48,6.4a.13.13,0,0,1,.07,0,0,0,0,0,1,.05,0s-.09.11-.12.15S46.79,7.8,46.11,7.8Z"/><path class="cls-1" d="M48.57,6,48,6.55,48,6.6a.06.06,0,0,1-.05,0S48,6.46,48,6.4s.22-.22.52-.55a1.22,1.22,0,0,1-.12-.49,1.23,1.23,0,0,1,.82-1,.6.6,0,0,1,.44.44c0,.18-.78.49-.78.93s.24.6.33,1c.39.06.58.18.58.24s-.07.1-.12.1a1.87,1.87,0,0,0-.45-.21.64.64,0,0,1,0,.2,1.11,1.11,0,0,1-1.11,1,1.18,1.18,0,0,1-1.09-.87q0-.13.18-.21a7.46,7.46,0,0,1,1.43-.29.61.61,0,0,0,0-.14A1.84,1.84,0,0,0,48.57,6Zm-1.3,1.33c0,.13.25.31.63.31a.86.86,0,0,0,.76-.74,4.41,4.41,0,0,0-1.27.31C47.29,7.21,47.27,7.24,47.27,7.29Z"/></g></g></svg>