<?xml version="1.0" encoding="UTF-8"?><svg xmlns="http://www.w3.org/2000/svg" viewBox="0 0 50 50.24"><defs><style>.d{fill:#25a249;}.d,.e{fill-rule:evenodd;}.e{fill:#fff;}</style></defs><g id="a"/><g id="b"><g id="c"><g><path class="e" d="M42.71,7.3C38.06,2.61,31.72-.02,25.11,0,11.38,0,.21,11.17,.21,24.89c0,4.39,1.15,8.67,3.32,12.45L0,50.24l13.2-3.46c3.65,1.99,7.74,3.03,11.9,3.03h.01c13.72,0,24.89-11.17,24.89-24.89,.02-6.61-2.6-12.95-7.29-17.61"/><path class="d" d="M25.11,45.6h0c-3.71,0-7.34-1-10.53-2.89l-.75-.45-7.83,2.05,2.09-7.63-.49-.78c-2.07-3.3-3.17-7.12-3.16-11.01,0-11.41,9.29-20.69,20.7-20.69,5.49-.01,10.76,2.17,14.63,6.07,3.89,3.88,6.07,9.15,6.05,14.64,0,11.41-9.29,20.69-20.69,20.69"/><path class="e" d="M36.46,30.11c-.62-.31-3.68-1.82-4.25-2.02-.57-.21-.98-.31-1.4,.31s-1.61,2.02-1.97,2.44-.73,.47-1.35,.16-2.63-.97-5-3.09c-1.85-1.65-3.1-3.69-3.46-4.31s-.04-.96,.27-1.27c.28-.28,.62-.73,.93-1.09s.41-.62,.62-1.04,.11-.78-.05-1.09c-.16-.31-1.4-3.37-1.92-4.62-.5-1.21-1.01-1.05-1.4-1.06-.4-.02-.79-.02-1.19-.02-.64,.02-1.24,.3-1.66,.78-.57,.62-2.18,2.13-2.18,5.19s2.23,6.02,2.54,6.44c.31,.42,4.39,6.7,10.63,9.39,1.49,.64,2.65,1.02,3.55,1.31,1.49,.47,2.85,.4,3.92,.25,1.2-.18,3.68-1.5,4.2-2.96s.52-2.7,.36-2.96c-.16-.26-.57-.42-1.19-.73"/></g></g></g></svg>